<svg width="179" height="40" viewBox="0 0 179 40" fill="none" xmlns="http://www.w3.org/2000/svg">
<g clip-path="url(#clip0_6765_7676)">
<path d="M24.6797 5.09333C24.6797 2.28133 22.3983 0 19.5863 0C16.7703 0 14.4902 2.28133 14.4902 5.09333C14.4902 7.90533 16.7703 10.1853 19.5863 10.1853C22.3983 10.1853 24.6797 7.90533 24.6797 5.09333Z" fill="#067988"/>
<path d="M11.8482 5.93875C11.8482 3.60808 9.96029 1.71875 7.62961 1.71875C5.2976 1.71875 3.4082 3.60808 3.4082 5.93875C3.4082 8.26942 5.2976 10.1588 7.62961 10.1588C9.96029 10.1588 11.8482 8.26942 11.8482 5.93875Z" fill="#067988"/>
<path d="M35.6725 5.93875C35.6725 3.60808 33.7831 1.71875 31.4512 1.71875C29.1218 1.71875 27.2324 3.60808 27.2324 5.93875C27.2324 8.26942 29.1218 10.1588 31.4512 10.1588C33.7831 10.1588 35.6725 8.26942 35.6725 5.93875Z" fill="#067988"/>
<path d="M8.50002 14.4439C8.50002 13.0345 9.64138 11.8945 11.0507 11.8945H2.54941C1.14009 11.8945 0 13.0345 0 14.4439V28.6625C2.52268 30.7585 5.38667 32.4572 8.50002 33.6625V14.4439Z" fill="#067988"/>
<path d="M39.1014 14.4439C39.1014 13.0345 37.9614 11.8945 36.5533 11.8945H28.0508C29.4601 11.8945 30.6013 13.0345 30.6013 14.4439V33.6612C33.712 32.4572 36.5787 30.7585 39.1014 28.6625V14.4439Z" fill="#067988"/>
<path d="M28.0797 34.5159V14.4439C28.0797 13.0345 26.9397 11.8945 25.529 11.8945H25.4863H22.0863C20.6943 11.9131 19.5703 13.0479 19.5703 14.4439C19.5703 13.0345 18.4303 11.8945 17.0197 11.8945H13.6197C12.213 11.8945 11.0703 13.0345 11.0703 14.4439V34.5279C13.7637 35.3025 16.609 35.7172 19.5504 35.7172C22.5104 35.7172 25.373 35.2985 28.0797 34.5159Z" fill="#067988"/>
<path fill-rule="evenodd" clip-rule="evenodd" d="M82.8203 37.3395C89.191 37.3395 91.8509 35.7862 91.8509 30.1262V11.9648H85.1123V30.2622C85.1123 31.4408 84.9736 33.3635 84.8085 34.0008C84.4713 34.6448 83.5631 35.2835 82.8204 35.4195L82.8203 37.3395Z" fill="#067988"/>
<path fill-rule="evenodd" clip-rule="evenodd" d="M85.0566 3.60156H91.8474V10.1882H85.0566V3.60156Z" fill="#067988"/>
<path fill-rule="evenodd" clip-rule="evenodd" d="M120.005 11.9657H113.311V28.8844H120.073V18.971C120.073 16.703 120.815 15.787 122.637 15.787C124.025 15.787 124.637 17.1084 124.637 18.2244V28.8844H131.389V19.0031C131.389 16.7711 132.1 15.787 133.961 15.787C135.179 15.787 135.952 16.9391 135.952 18.2244V28.8844H142.711V18.0217C142.741 13.6204 140.616 11.523 136.256 11.559C133.756 11.5897 131.696 12.6097 130.615 13.859C129.699 11.9657 127.539 11.559 125.955 11.559C123.42 11.559 120.984 12.4377 120.073 13.859H120.005V11.9657Z" fill="#067988"/>
<path fill-rule="evenodd" clip-rule="evenodd" d="M154.853 27.0573C154.853 27.6666 154.989 28.5133 155.158 28.8853H162.186C161.746 27.6999 161.613 26.1786 161.613 24.7559V18.6306C161.613 12.8773 157.588 11.5586 153.534 11.5586C151.234 11.5586 148.734 11.9986 145.998 13.8586L147.857 16.9053C149.005 15.8906 150.461 15.0773 152.32 15.0773C153.437 15.0773 154.652 15.8559 155.089 16.7706L151.206 17.7173C146.576 18.8693 144.512 20.6279 144.512 24.2479C144.512 27.2599 147.08 29.2919 149.41 29.2919C150.968 29.2919 152.584 28.2399 153.906 27.5626L154.853 27.0573ZM155.053 19.2053C155.29 23.7413 153.568 25.2959 152.386 25.2959C151.508 25.2959 150.63 24.4519 150.63 23.3346C150.63 21.7439 151.676 20.4586 153.126 19.9506L155.053 19.2053Z" fill="#067988"/>
<path fill-rule="evenodd" clip-rule="evenodd" d="M170.869 11.9652H164.113V28.8839H170.869V21.6452C170.869 18.1906 172.728 17.4466 174.281 17.4466C175.363 17.4466 175.772 17.6492 176.211 17.7853L178.303 12.8453C177.359 12.0986 176.413 11.5586 174.959 11.5586C172.496 11.5586 171.752 14.2306 171.448 14.9759L170.935 16.3293H170.869V11.9652Z" fill="#067988"/>
<path fill-rule="evenodd" clip-rule="evenodd" d="M63.1892 24.4186C62.5132 24.6866 61.4972 24.9599 60.4812 24.9599C58.9972 24.9599 56.4919 23.9439 56.4919 20.4933C56.4919 17.2466 58.3185 15.8906 60.5505 15.8906C61.4306 15.8906 62.4425 16.0919 63.3878 16.5026L65.1466 13.0493C63.5252 12.0986 61.4306 11.5586 59.808 11.5586C54.0639 11.5586 49.3652 15.0773 49.3652 20.6959C49.3652 25.8719 53.5905 29.2919 59.3985 29.2919C61.1585 29.2919 63.0492 28.9506 64.8759 28.0039L63.1892 24.4186Z" fill="#067988"/>
<path fill-rule="evenodd" clip-rule="evenodd" d="M75.9898 27.0573C75.9898 27.6666 76.1217 28.5133 76.2952 28.8853H83.3231C82.8818 27.6999 82.7444 26.1786 82.7444 24.7559V18.6306C82.7444 12.8773 78.7258 11.5586 74.6698 11.5586C72.3738 11.5586 69.8711 11.9986 67.1351 13.8586L68.9938 16.9053C70.1431 15.8906 71.5965 15.0773 73.4565 15.0773C74.5699 15.0773 75.7845 15.8559 76.2271 16.7706L72.3431 17.7173C67.7098 18.8693 65.6484 20.6279 65.6484 24.2479C65.6484 27.2599 68.2205 29.2919 70.5512 29.2919C72.1032 29.2919 73.7257 28.2399 75.0418 27.5626L75.9898 27.0573ZM76.1938 19.2053C76.4259 23.7413 74.7072 25.2959 73.5232 25.2959C72.6405 25.2959 71.7658 24.4519 71.7658 23.3346C71.7658 21.7439 72.8139 20.4586 74.2646 19.9506L76.1938 19.2053Z" fill="#067988"/>
<path fill-rule="evenodd" clip-rule="evenodd" d="M104.081 27.0573C104.081 27.6666 104.218 28.5133 104.387 28.8853H111.415C110.976 27.6999 110.839 26.1786 110.839 24.7559V18.6306C110.839 12.8773 106.822 11.5586 102.76 11.5586C100.464 11.5586 97.9655 11.9986 95.2295 13.8586L97.0882 16.9053C98.2388 15.8906 99.6935 15.0773 101.548 15.0773C102.664 15.0773 103.88 15.8559 104.32 16.7706L100.434 17.7173C95.8042 18.8693 93.7402 20.6279 93.7402 24.2479C93.7402 27.2599 96.3149 29.2919 98.6442 29.2919C100.199 29.2919 101.817 28.2399 103.135 27.5626L104.081 27.0573ZM104.286 19.2053C104.515 23.7413 102.796 25.2959 101.618 25.2959C100.738 25.2959 99.8616 24.4519 99.8616 23.3346C99.8616 21.7439 100.906 20.4586 102.359 19.9506L104.286 19.2053Z" fill="#067988"/>
<path d="M118.485 34.3753C118.255 33.322 117.387 32.7193 116.391 32.7193C114.583 32.7193 113.819 34.2313 113.819 35.7247C113.819 37.2153 114.583 38.7273 116.391 38.7273C117.653 38.7273 118.457 37.7513 118.58 36.5367H119.232C119.049 38.21 117.988 39.2807 116.391 39.2807C114.239 39.2807 113.168 37.5887 113.168 35.7247C113.168 33.8593 114.239 32.166 116.391 32.166C117.681 32.166 118.964 32.9393 119.135 34.3753H118.485Z" fill="#067988"/>
<path d="M121.785 36.4606H124.472L123.152 32.9593L121.785 36.4606ZM122.817 32.3086H123.544L126.221 39.1379H125.525L124.693 37.0153H121.584L120.76 39.1379H120.062L122.817 32.3086Z" fill="#067988"/>
<path d="M130.191 32.3086H130.842V37.2339C130.842 38.6219 130.325 39.2806 128.851 39.2806C127.282 39.2806 126.941 38.1339 126.947 36.9473H127.601C127.62 37.5313 127.559 38.7273 128.91 38.7273C129.925 38.7273 130.191 38.2099 130.191 36.9579V32.3086Z" fill="#067988"/>
<path d="M133.776 36.4606H136.464L135.144 32.9593L133.776 36.4606ZM134.809 32.3086H135.537L138.213 39.1379H137.517L136.685 37.0153H133.576L132.753 39.1379H132.055L134.809 32.3086Z" fill="#067988"/>
<path d="M143.33 35.5513H145.758C146.553 35.5513 147.232 35.0539 147.232 34.2206C147.232 33.3913 146.736 32.8646 145.758 32.8646H143.33V35.5513ZM142.68 32.3086H145.808C146.936 32.3086 147.882 32.8539 147.882 34.0873C147.882 34.9486 147.433 35.6566 146.553 35.8286V35.8486C147.442 35.9633 147.7 36.5753 147.749 37.3873C147.776 37.8566 147.776 38.7953 148.064 39.1379H147.348C147.185 38.8699 147.185 38.3646 147.166 38.0779C147.108 37.1193 147.029 36.0593 145.797 36.1059H143.331V39.1379H142.68L142.68 32.3086Z" fill="#067988"/>
<path d="M149.586 32.3086H150.235V36.5366C150.224 38.1246 150.982 38.7273 152.234 38.7273C153.498 38.7273 154.254 38.1246 154.243 36.5366V32.3086H154.893V36.6793C154.893 38.0859 154.138 39.2806 152.234 39.2806C150.341 39.2806 149.586 38.0859 149.586 36.6793V32.3086Z" fill="#067988"/>
<path d="M157.446 35.5513H159.876C160.671 35.5513 161.348 35.0539 161.348 34.2206C161.348 33.3913 160.851 32.8646 159.876 32.8646H157.446V35.5513ZM156.795 32.3086H159.923C161.052 32.3086 161.999 32.8539 161.999 34.0873C161.999 34.9486 161.548 35.6566 160.671 35.8286V35.8486C161.558 35.9633 161.818 36.5753 161.864 37.3873C161.891 37.8566 161.891 38.7953 162.182 39.1379H161.464C161.3 38.8699 161.3 38.3646 161.282 38.0779C161.223 37.1193 161.148 36.0593 159.914 36.1059H157.446V39.1379H156.795L156.795 32.3086Z" fill="#067988"/>
<path d="M164.733 36.4606H167.421L166.1 32.9593L164.733 36.4606ZM165.765 32.3086H166.493L169.17 39.1379H168.474L167.641 37.0153H164.533L163.709 39.1379H163.012L165.765 32.3086Z" fill="#067988"/>
<path d="M170.387 32.3086H171.035V38.5833H174.863V39.1379H170.387V32.3086Z" fill="#067988"/>
</g>
<defs>
<clipPath id="clip0_6765_7676">
<rect width="178.303" height="39.2795" fill="white"/>
</clipPath>
</defs>
</svg>
